<?xml version="1.0" encoding="utf-8"?>
<!-- Generator: Adobe Illustrator 18.1.0, SVG Export Plug-In . SVG Version: 6.00 Build 0)  -->
<svg version="1.1"
	 id="svg11300" xmlns:sodipodi="http://sodipodi.sourceforge.net/DTD/sodipodi-0.dtd" xmlns:rdf="http://www.w3.org/1999/02/22-rdf-syntax-ns#" xmlns:dc="http://purl.org/dc/elements/1.1/" xmlns:cc="http://creativecommons.org/ns#" xmlns:inkscape="http://www.inkscape.org/namespaces/inkscape" xmlns:svg="http://www.w3.org/2000/svg" inkscape:export-ydpi="90.000000" inkscape:export-xdpi="90.000000" inkscape:export-filename="/home/jimmac/Desktop/wi-fi.png" sodipodi:version="0.32" sodipodi:docname="channel_active.svg" inkscape:version="0.47 r22583" inkscape:output_extension="org.inkscape.output.svg.inkscape"
	 xmlns="http://www.w3.org/2000/svg" xmlns:xlink="http://www.w3.org/1999/xlink" x="0px" y="0px" viewBox="-401 250 288 287"
	 enable-background="new -401 250 288 287" xml:space="preserve">
<defs>
	
	
		<inkscape:perspective  id="perspective71" inkscape:vp_y="0 : 1079.027 : 0" inkscape:vp_z="-35.893951 : 68.347858 : 1" inkscape:vp_x="-101.24563 : 73.280955 : 1" sodipodi:type="inkscape:persp3d" inkscape:persp3d-origin="-86.936392 : 40.074385 : 1">
		</inkscape:perspective>
	
		<inkscape:perspective  id="perspective3088" inkscape:vp_y="0 : 1000 : 0" inkscape:vp_z="1 : 0.5 : 1" inkscape:vp_x="0 : 0.5 : 1" sodipodi:type="inkscape:persp3d" inkscape:persp3d-origin="0.5 : 0.33333333 : 1">
		</inkscape:perspective>
	
		<inkscape:perspective  id="perspective10525" inkscape:vp_y="0 : 1000 : 0" inkscape:vp_z="1 : 0.5 : 1" inkscape:vp_x="0 : 0.5 : 1" sodipodi:type="inkscape:persp3d" inkscape:persp3d-origin="0.5 : 0.33333333 : 1">
		</inkscape:perspective>
	
		<inkscape:perspective  id="perspective10848" inkscape:vp_y="0 : 1000 : 0" inkscape:vp_z="1 : 0.5 : 1" inkscape:vp_x="0 : 0.5 : 1" sodipodi:type="inkscape:persp3d" inkscape:persp3d-origin="0.5 : 0.33333333 : 1">
		</inkscape:perspective>
	
		<inkscape:perspective  id="perspective10886" inkscape:vp_y="0 : 1000 : 0" inkscape:vp_z="1 : 0.5 : 1" inkscape:vp_x="0 : 0.5 : 1" sodipodi:type="inkscape:persp3d" inkscape:persp3d-origin="0.5 : 0.33333333 : 1">
		</inkscape:perspective>
</defs>
<sodipodi:namedview  fill="#eeeeec" stroke="#ef2929" inkscape:cx="6.7746272" pagecolor="#ffffff" inkscape:cy="35.178315" borderopacity="0.25490196" showgrid="false" bordercolor="#666666" inkscape:zoom="5.7134228" id="base" inkscape:window-maximized="1" inkscape:snap-global="false" inkscape:grid-bbox="true" inkscape:showpageshadow="false" inkscape:window-y="-4" inkscape:window-x="-4" inkscape:window-height="968" inkscape:window-width="1280" inkscape:current-layer="layer1" inkscape:document-units="px" inkscape:pageshadow="2" inkscape:pageopacity="0.0">
	</sodipodi:namedview>
<g id="layer3" inkscape:label="Calque" inkscape:groupmode="layer">
	<g id="g4054" transform="matrix(2.4476046,0,0,2.4476046,-40.9472,35.460744)">
		
			<text transform="matrix(0.4219 -3.527161e-002 2.648324e-002 0.4077 -89.3098 152.8225)" fill="#00AAD4" font-family="'ArialMT'" font-size="34.7151">P</text>
		<a id="a4060">
			
				<text transform="matrix(-0.4219 3.527286e-002 -2.657933e-002 -0.4077 -86.2416 143.0205)" fill="#00AAD4" font-family="'ArialMT'" font-size="34.7117">P</text>
		</a>
	</g>
</g>
<g id="layer2" inkscape:label="cross" inkscape:groupmode="layer" display="none">
</g>
<g>
	<path fill-rule="evenodd" clip-rule="evenodd" fill="none" d="M-77.4,408.7c-80.3,52.4-160.8,104.8-241.2,157.2
		c-38.7-59.5-77.5-118.9-116.3-178.5c80.3-52.4,160.7-104.7,241.2-157.2C-155,289.7-116.2,349.2-77.4,408.7z M-236,406.8
		c2.5-0.9,4.4-1.5,6.3-2.2c14.6-5.1,29.4-9.8,43.8-15.5c15.6-6.1,29.7-14.9,38.2-30c12.2-21.7,8-43.1-4.3-63
		c-11.7-18.8-29.1-28-51.8-24.2c-6.6,1.1-13.2,2.1-19.5,4.2c-25.5,8.4-50.8,17.1-76.3,25.8c-4.4,1.5-5.3,4.4-3.9,8.7
		c5.9,17,11.7,34,17.6,51c3.1,9.1,6.2,18.2,9.5,27.6c-11.5,4-22.5,7.8-33.5,11.6c-13.6,4.6-26.8,9.9-38.6,18.4
		c-41.7,30.3-19.9,86.2,9,100.9c13.7,6.9,27.7,6.6,41.4,2.4c28.8-8.8,57.3-18.6,85.9-28.2c4.2-1.4,4.7-4.6,3.4-8.5
		c-3.7-10.7-7.3-21.4-11-32.2C-225.2,438.2-230.5,422.8-236,406.8z"/>
	<path fill="#00AAD4" d="M-236,406.8c5.5,16,10.8,31.4,16.1,46.8c3.7,10.7,7.3,21.5,11,32.2c1.4,3.9,0.8,7.1-3.4,8.5
		c-28.6,9.5-57.1,19.4-85.9,28.2c-13.7,4.2-27.7,4.5-41.4-2.4c-28.9-14.6-50.7-70.6-9-100.9c11.8-8.6,25-13.8,38.6-18.4
		c11-3.7,22-7.6,33.5-11.6c-3.2-9.4-6.3-18.5-9.5-27.6c-5.8-17-11.7-34-17.6-51c-1.5-4.2-0.5-7.2,3.9-8.7
		c25.4-8.6,50.8-17.4,76.3-25.8c6.3-2.1,13-3.1,19.5-4.2c22.8-3.8,40.1,5.4,51.8,24.2c12.4,19.9,16.5,41.2,4.3,63
		c-8.5,15.1-22.6,23.9-38.2,30c-14.4,5.7-29.2,10.4-43.8,15.5C-231.6,405.3-233.5,405.9-236,406.8z M-245.6,379
		c14.5-5,28.2-9.6,41.8-14.5c4.2-1.5,8.3-3.4,12.4-5.4c18.8-9.5,23.4-29.2,10.8-46.2c-6.5-8.7-14.9-13.9-25.9-10.7
		c-19.6,5.7-39.1,12.1-59.1,18.4C-258.8,340.5-252.3,359.5-245.6,379z M-266.8,417.3c-16.3,5.7-31.9,11.1-47.4,16.7
		c-3.9,1.4-7.6,3.4-11.1,5.6c-10.2,6.3-14.9,15.4-13,27.5c3.2,21.1,17.7,31.1,38.1,25.6c11.7-3.1,23.1-7.5,34.7-11.3
		c6.1-2,12.2-4.2,18.6-6.4C-253.6,455.6-260.1,436.8-266.8,417.3z"/>
	<path fill-rule="evenodd" clip-rule="evenodd" fill="none" d="M-245.6,379c-6.7-19.5-13.2-38.5-20.1-58.3
		c20.1-6.3,39.5-12.7,59.1-18.4c11-3.2,19.5,2,25.9,10.7c12.6,17,8,36.7-10.8,46.2c-4,2-8.1,3.9-12.4,5.4
		C-217.4,369.4-231.1,374-245.6,379z"/>
	<path fill-rule="evenodd" clip-rule="evenodd" fill="none" d="M-266.8,417.3c6.7,19.5,13.2,38.3,19.8,57.6
		c-6.5,2.2-12.5,4.4-18.6,6.4c-11.5,3.9-22.9,8.2-34.7,11.3c-20.4,5.5-34.9-4.6-38.1-25.6c-1.9-12.1,2.8-21.2,13-27.5
		c3.5-2.2,7.3-4.2,11.1-5.6C-298.7,428.3-283.1,423-266.8,417.3z"/>
</g>
<g>
	<path fill-rule="evenodd" clip-rule="evenodd" fill="none" d="M-270,574.8c-50.8-81.3-101.7-162.7-152.6-244.1
		c60.2-37.6,120.4-75.2,180.6-112.9c50.8,81.3,101.7,162.7,152.6,244.1C-149.6,499.5-209.8,537.1-270,574.8z M-265.2,416.3
		c0.8,2.5,1.5,4.4,2.1,6.3c4.8,14.7,9.3,29.6,14.7,44.1c5.8,15.7,14.4,30,29.3,38.7c21.5,12.6,43,8.8,63.1-3.2
		c19.1-11.4,28.5-28.5,25.2-51.3c-1-6.6-1.9-13.3-3.8-19.6c-7.9-25.6-16.2-51.2-24.3-76.7c-1.4-4.4-4.3-5.4-8.6-4
		c-17.1,5.6-34.2,11.1-51.4,16.6c-9.1,3-18.3,5.9-27.8,8.9c-3.8-11.6-7.4-22.6-10.9-33.7c-4.4-13.7-9.4-27-17.7-38.9
		c-29.5-42.3-85.8-21.5-101,7.1c-7.2,13.5-7.1,27.6-3.2,41.3c8.2,29,17.6,57.7,26.5,86.5c1.3,4.2,4.5,4.8,8.4,3.5
		c10.8-3.5,21.6-6.9,32.4-10.4C-296.8,426.5-281.3,421.5-265.2,416.3z"/>
	<path fill="#0C7E91" d="M-265.2,416.3c-16.1,5.2-31.6,10.2-47.1,15.2c-10.8,3.5-21.6,6.9-32.4,10.4c-3.9,1.3-7.1,0.7-8.4-3.5
		c-9-28.8-18.3-57.5-26.5-86.5c-3.9-13.8-4-27.8,3.2-41.3c15.2-28.6,71.5-49.3,101-7.1c8.3,11.9,13.4,25.3,17.7,38.9
		c3.5,11.1,7.2,22.1,10.9,33.7c9.5-3.1,18.7-6,27.8-8.9c17.1-5.5,34.3-11,51.4-16.6c4.3-1.4,7.2-0.4,8.6,4
		c8.2,25.6,16.4,51.1,24.3,76.7c1.9,6.3,2.8,13,3.8,19.6c3.3,22.8-6.1,40-25.2,51.3c-20.1,12-41.5,15.8-63.1,3.2
		c-14.9-8.8-23.5-23-29.3-38.7c-5.4-14.5-9.8-29.4-14.7-44.1C-263.7,420.7-264.3,418.8-265.2,416.3z M-237.1,407.2
		c4.7,14.6,9.1,28.4,13.7,42.1c1.4,4.3,3.2,8.4,5.1,12.5c9.1,19,28.8,24,46,11.7c8.8-6.3,14.2-14.6,11.2-25.7
		c-5.3-19.7-11.4-39.3-17.3-59.5C-198.4,394.7-217.5,400.9-237.1,407.2z M-275,385.3c-5.4-16.5-10.5-32.1-15.8-47.7
		c-1.3-3.9-3.3-7.7-5.4-11.2c-6.1-10.3-15.1-15.1-27.2-13.5c-21.1,2.8-31.4,17.1-26.3,37.6c2.9,11.8,7.1,23.3,10.7,34.9
		c1.9,6.1,4,12.2,6.1,18.7C-313.6,397.8-294.6,391.7-275,385.3z"/>
	<path fill-rule="evenodd" clip-rule="evenodd" fill="none" d="M-237.1,407.2c19.6-6.3,38.7-12.5,58.7-19
		c5.9,20.2,11.9,39.7,17.3,59.5c3,11.1-2.4,19.4-11.2,25.7c-17.2,12.3-36.9,7.3-46-11.7c-1.9-4-3.7-8.2-5.1-12.5
		C-228.1,435.6-232.4,421.8-237.1,407.2z"/>
	<path fill-rule="evenodd" clip-rule="evenodd" fill="none" d="M-275,385.3c-19.6,6.3-38.6,12.5-58,18.7c-2.1-6.5-4.2-12.6-6.1-18.7
		c-3.6-11.6-7.8-23.1-10.7-34.9c-5.1-20.5,5.2-34.8,26.3-37.6c12.1-1.6,21.1,3.2,27.2,13.5c2.1,3.6,4.1,7.3,5.4,11.2
		C-285.5,353.2-280.4,368.9-275,385.3z"/>
</g>
</svg>
