<?xml version="1.0" encoding="utf-8"?>
<!-- Generator: Adobe Illustrator 18.1.0, SVG Export Plug-In . SVG Version: 6.00 Build 0)  -->
<svg version="1.1"
	 id="svg11300" xmlns:svg="http://www.w3.org/2000/svg" xmlns:sodipodi="http://sodipodi.sourceforge.net/DTD/sodipodi-0.dtd" xmlns:dc="http://purl.org/dc/elements/1.1/" xmlns:inkscape="http://www.inkscape.org/namespaces/inkscape" xmlns:cc="http://creativecommons.org/ns#" xmlns:rdf="http://www.w3.org/1999/02/22-rdf-syntax-ns#" inkscape:version="0.47 r22583" sodipodi:docname="channel_active.svg" sodipodi:version="0.32" inkscape:output_extension="org.inkscape.output.svg.inkscape" inkscape:export-ydpi="90.000000" inkscape:export-filename="/home/jimmac/Desktop/wi-fi.png" inkscape:export-xdpi="90.000000"
	 xmlns="http://www.w3.org/2000/svg" xmlns:xlink="http://www.w3.org/1999/xlink" x="0px" y="0px" viewBox="-548 101 574 582"
	 enable-background="new -548 101 574 582" xml:space="preserve">
<defs>
	
	
		<inkscape:perspective  id="perspective71" inkscape:vp_x="-101.24563 : 73.280955 : 1" inkscape:vp_z="-35.893951 : 68.347858 : 1" inkscape:vp_y="0 : 1079.027 : 0" sodipodi:type="inkscape:persp3d" inkscape:persp3d-origin="-86.936392 : 40.074385 : 1">
		</inkscape:perspective>
	
		<inkscape:perspective  id="perspective3088" inkscape:vp_x="0 : 0.5 : 1" inkscape:vp_z="1 : 0.5 : 1" inkscape:vp_y="0 : 1000 : 0" sodipodi:type="inkscape:persp3d" inkscape:persp3d-origin="0.5 : 0.33333333 : 1">
		</inkscape:perspective>
	
		<inkscape:perspective  id="perspective10525" inkscape:vp_x="0 : 0.5 : 1" inkscape:vp_z="1 : 0.5 : 1" inkscape:vp_y="0 : 1000 : 0" sodipodi:type="inkscape:persp3d" inkscape:persp3d-origin="0.5 : 0.33333333 : 1">
		</inkscape:perspective>
	
		<inkscape:perspective  id="perspective10848" inkscape:vp_x="0 : 0.5 : 1" inkscape:vp_z="1 : 0.5 : 1" inkscape:vp_y="0 : 1000 : 0" sodipodi:type="inkscape:persp3d" inkscape:persp3d-origin="0.5 : 0.33333333 : 1">
		</inkscape:perspective>
	
		<inkscape:perspective  id="perspective10886" inkscape:vp_x="0 : 0.5 : 1" inkscape:vp_z="1 : 0.5 : 1" inkscape:vp_y="0 : 1000 : 0" sodipodi:type="inkscape:persp3d" inkscape:persp3d-origin="0.5 : 0.33333333 : 1">
		</inkscape:perspective>
</defs>
<sodipodi:namedview  fill="#eeeeec" stroke="#ef2929" inkscape:cy="35.178315" showgrid="false" borderopacity="0.25490196" pagecolor="#ffffff" bordercolor="#666666" inkscape:cx="6.7746272" inkscape:zoom="5.7134228" id="base" inkscape:window-maximized="1" inkscape:grid-bbox="true" inkscape:showpageshadow="false" inkscape:window-y="-4" inkscape:window-x="-4" inkscape:window-height="968" inkscape:window-width="1280" inkscape:current-layer="layer1" inkscape:pageshadow="2" inkscape:pageopacity="0.0" inkscape:document-units="px" inkscape:snap-global="false">
	</sodipodi:namedview>
<g id="layer2" inkscape:groupmode="layer" inkscape:label="cross" display="none">
</g>
<g>
	<path fill="none" d="M122.6,419.3C-48,530.7-219.1,642-389.9,753.4C-472.1,626.9-554.6,500.7-637,374
		c170.6-111.3,341.5-222.5,512.5-334C-42.3,166.4,40.2,292.9,122.6,419.3z M-214.4,415.3c5.3-1.9,9.3-3.2,13.4-4.7
		c31-10.8,62.5-20.8,93.1-32.9c33.2-13,63.1-31.7,81.2-63.8c25.9-46.1,17-91.6-9.1-133.9c-24.9-39.9-61.8-59.5-110.1-51.4
		c-14,2.3-28,4.5-41.4,8.9c-54.2,17.8-108,36.3-162.1,54.8c-9.3,3.2-11.3,9.3-8.3,18.5c12.5,36.1,24.9,72.3,37.4,108.4
		c6.6,19.3,13.2,38.7,20.2,58.6c-24.4,8.5-47.8,16.6-71.2,24.7c-28.9,9.8-56.9,21-82,39.1c-88.6,64.4-42.3,183.2,19.1,214.4
		c29.1,14.7,58.9,14,88,5.1c61.2-18.7,121.8-39.5,182.5-59.9c8.9-3,10-9.8,7.2-18.1c-7.9-22.7-15.5-45.5-23.4-68.4
		C-191.4,482-202.7,449.3-214.4,415.3z"/>
	<path fill="#EFCB37" d="M-214.4,415.3c11.7,34,23,66.7,34.2,99.4c7.9,22.7,15.5,45.7,23.4,68.4c3,8.3,1.7,15.1-7.2,18.1
		c-60.8,20.2-121.3,41.2-182.5,59.9c-29.1,8.9-58.9,9.6-88-5.1c-61.4-31-107.7-150-19.1-214.4c25.1-18.3,53.1-29.3,82-39.1
		c23.4-7.9,46.8-16.2,71.2-24.7c-6.8-20-13.4-39.3-20.2-58.6c-12.3-36.1-24.9-72.3-37.4-108.4c-3.2-8.9-1.1-15.3,8.3-18.5
		c54-18.3,107.9-37,162.1-54.8c13.4-4.5,27.6-6.6,41.4-8.9c48.5-8.1,85.2,11.5,110.1,51.4c26.3,42.3,35.1,87.6,9.1,133.9
		c-18.1,32.1-48,50.8-81.2,63.8c-30.6,12.1-62,22.1-93.1,32.9C-205,412.1-209.1,413.3-214.4,415.3z M-234.8,356.2
		c30.8-10.6,59.9-20.4,88.8-30.8c8.9-3.2,17.6-7.2,26.3-11.5c40-20.2,49.7-62.1,23-98.2c-13.8-18.5-31.7-29.5-55-22.7
		c-41.7,12.1-83.1,25.7-125.6,39.1C-262.8,274.4-249,314.8-234.8,356.2z M-279.8,437.6c-34.6,12.1-67.8,23.6-100.7,35.5
		c-8.3,3-16.2,7.2-23.6,11.9c-21.7,13.4-31.7,32.7-27.6,58.4c6.8,44.8,37.6,66.1,81,54.4c24.9-6.6,49.1-15.9,73.7-24
		c13-4.3,25.9-8.9,39.5-13.6C-251.8,519-265.6,479-279.8,437.6z"/>
	<path fill="none" d="M-234.8,356.2c-14.2-41.4-28.1-81.8-42.7-123.9c42.7-13.4,83.9-27,125.6-39.1c23.4-6.8,41.4,4.3,55,22.7
		c26.8,36.1,17,78-23,98.2c-8.5,4.3-17.2,8.3-26.3,11.5C-174.8,335.8-204,345.6-234.8,356.2z"/>
	<path fill="none" d="M-279.8,437.6c14.2,41.4,28.1,81.4,42.1,122.4c-13.8,4.7-26.6,9.3-39.5,13.6c-24.4,8.3-48.7,17.4-73.7,24
		c-43.3,11.7-74.2-9.8-81-54.4c-4-25.7,5.9-45.1,27.6-58.4c7.4-4.7,15.5-8.9,23.6-11.9C-347.6,460.9-314.5,449.7-279.8,437.6z"/>
</g>
<path fill="#D8A503" d="M-276.4,435.4c-34.2,11.1-67.2,21.7-100.1,32.3c-22.9,7.4-45.9,14.7-68.8,22.1c-8.3,2.8-15.1,1.5-17.9-7.4
	c-19.1-61.2-38.9-122.2-56.3-183.8c-8.3-29.3-8.5-59.1,6.8-87.8c32.3-60.8,151.9-104.8,214.6-15.1c17.6,25.3,28.5,53.8,37.6,82.7
	c7.4,23.6,15.3,47,23.2,71.6c20.2-6.6,39.7-12.8,59.1-18.9c36.3-11.7,72.9-23.4,109.2-35.3c9.1-3,15.3-0.9,18.3,8.5
	c17.4,54.4,34.8,108.6,51.6,163c4,13.4,6,27.6,8.1,41.6c7,48.5-13,85-53.5,109c-42.7,25.5-88.2,33.6-134.1,6.8
	c-31.7-18.7-49.9-48.9-62.3-82.2c-11.5-30.8-20.8-62.5-31.2-93.7C-273.2,444.8-274.5,440.8-276.4,435.4z M-216.7,416.1
	c10,31,19.3,60.4,29.1,89.5c3,9.1,6.8,17.9,10.8,26.6c19.3,40.4,61.2,51,97.8,24.9c18.7-13.4,30.2-31,23.8-54.6
	C-66.5,460.5-79.4,418.9-92,376C-134.5,389.6-175.1,402.7-216.7,416.1z M-297.3,369.6c-11.5-35.1-22.3-68.2-33.6-101.4
	c-2.8-8.3-7-16.4-11.5-23.8c-13-21.9-32.1-32.1-57.8-28.7c-44.8,5.9-66.7,36.3-55.9,79.9c6.2,25.1,15.1,49.5,22.7,74.2
	c4,13,8.5,25.9,13,39.7C-379.3,396.1-338.9,383.2-297.3,369.6z"/>
</svg>
