<?xml version="1.0" encoding="utf-8"?>
<!-- Generator: Adobe Illustrator 18.1.0, SVG Export Plug-In . SVG Version: 6.00 Build 0)  -->
<svg version="1.1"
	 id="svg11300" xmlns:rdf="http://www.w3.org/1999/02/22-rdf-syntax-ns#" xmlns:svg="http://www.w3.org/2000/svg" xmlns:sodipodi="http://sodipodi.sourceforge.net/DTD/sodipodi-0.dtd" xmlns:inkscape="http://www.inkscape.org/namespaces/inkscape" xmlns:dc="http://purl.org/dc/elements/1.1/" xmlns:cc="http://creativecommons.org/ns#" inkscape:export-xdpi="90.000000" inkscape:export-filename="/home/jimmac/Desktop/wi-fi.png" inkscape:export-ydpi="90.000000" inkscape:output_extension="org.inkscape.output.svg.inkscape" sodipodi:docname="channel_active.svg" sodipodi:version="0.32" inkscape:version="0.47 r22583"
	 xmlns="http://www.w3.org/2000/svg" xmlns:xlink="http://www.w3.org/1999/xlink" x="0px" y="0px" viewBox="0 58 612 608"
	 enable-background="new 0 58 612 608" xml:space="preserve">
<defs>
	
	
		<inkscape:perspective  sodipodi:type="inkscape:persp3d" inkscape:vp_x="-101.24563 : 73.280955 : 1" inkscape:vp_y="0 : 1079.027 : 0" id="perspective71" inkscape:vp_z="-35.893951 : 68.347858 : 1" inkscape:persp3d-origin="-86.936392 : 40.074385 : 1">
		</inkscape:perspective>
	
		<inkscape:perspective  sodipodi:type="inkscape:persp3d" inkscape:vp_x="0 : 0.5 : 1" inkscape:vp_y="0 : 1000 : 0" id="perspective3088" inkscape:vp_z="1 : 0.5 : 1" inkscape:persp3d-origin="0.5 : 0.33333333 : 1">
		</inkscape:perspective>
	
		<inkscape:perspective  sodipodi:type="inkscape:persp3d" inkscape:vp_x="0 : 0.5 : 1" inkscape:vp_y="0 : 1000 : 0" id="perspective10525" inkscape:vp_z="1 : 0.5 : 1" inkscape:persp3d-origin="0.5 : 0.33333333 : 1">
		</inkscape:perspective>
	
		<inkscape:perspective  sodipodi:type="inkscape:persp3d" inkscape:vp_x="0 : 0.5 : 1" inkscape:vp_y="0 : 1000 : 0" id="perspective10848" inkscape:vp_z="1 : 0.5 : 1" inkscape:persp3d-origin="0.5 : 0.33333333 : 1">
		</inkscape:perspective>
	
		<inkscape:perspective  sodipodi:type="inkscape:persp3d" inkscape:vp_x="0 : 0.5 : 1" inkscape:vp_y="0 : 1000 : 0" id="perspective10886" inkscape:vp_z="1 : 0.5 : 1" inkscape:persp3d-origin="0.5 : 0.33333333 : 1">
		</inkscape:perspective>
</defs>
<sodipodi:namedview  stroke="#ef2929" fill="#eeeeec" inkscape:zoom="5.7134228" borderopacity="0.25490196" inkscape:cx="6.7746272" bordercolor="#666666" pagecolor="#ffffff" inkscape:cy="35.178315" showgrid="false" id="base" inkscape:snap-global="false" inkscape:document-units="px" inkscape:pageopacity="0.0" inkscape:pageshadow="2" inkscape:current-layer="layer1" inkscape:window-width="1280" inkscape:window-height="968" inkscape:window-x="-4" inkscape:window-y="-4" inkscape:showpageshadow="false" inkscape:grid-bbox="true" inkscape:window-maximized="1">
	</sodipodi:namedview>
<g id="layer2" inkscape:label="cross" inkscape:groupmode="layer" display="none">
</g>
<g>
	<path fill="none" d="M707.6,387.1C525.7,505.9,343.3,624.6,161.2,743.3C73.5,608.5-14.4,473.9-102.3,338.8
		C79.6,220.1,261.8,101.6,444.1-17.3C531.8,117.5,619.7,252.3,707.6,387.1z M348.3,382.8c5.7-2,9.9-3.4,14.3-5
		c33.1-11.5,66.6-22.2,99.3-35.1c35.4-13.9,67.3-33.8,86.6-68c27.6-49.2,18.1-97.7-9.7-142.8c-26.5-42.5-65.9-63.4-117.4-54.8
		c-14.9,2.5-29.9,4.8-44.1,9.5c-57.8,19-115.1,38.7-172.8,58.4c-9.9,3.4-12,9.9-8.8,19.7c13.3,38.5,26.5,77.1,39.9,115.6
		c7,20.6,14.1,41.3,21.5,62.5c-26,9.1-51,17.7-75.9,26.3c-30.8,10.4-60.7,22.4-87.4,41.7c-94.5,68.7-45.1,195.3,20.4,228.6
		c31,15.7,62.8,14.9,93.8,5.4c65.3-19.9,129.9-42.1,194.6-63.9c9.5-3.2,10.7-10.4,7.7-19.3c-8.4-24.2-16.5-48.5-24.9-72.9
		C372.8,454,360.8,419.1,348.3,382.8z"/>
	<path fill="#D83535" d="M348.3,382.8c12.5,36.3,24.5,71.1,36.5,106c8.4,24.2,16.5,48.7,24.9,72.9c3.2,8.8,1.8,16.1-7.7,19.3
		c-64.8,21.5-129.3,43.9-194.6,63.9c-31,9.5-62.8,10.2-93.8-5.4C48.2,606.4-1.2,479.5,93.3,410.9c26.8-19.5,56.6-31.2,87.4-41.7
		c24.9-8.4,49.9-17.3,75.9-26.3c-7.3-21.3-14.3-41.9-21.5-62.5c-13.1-38.5-26.5-77.1-39.9-115.6c-3.4-9.5-1.2-16.3,8.8-19.7
		c57.6-19.5,115-39.4,172.8-58.4c14.3-4.8,29.4-7,44.1-9.5c51.7-8.6,90.8,12.3,117.4,54.8c28,45.1,37.4,93.4,9.7,142.8
		c-19.3,34.2-51.2,54.2-86.6,68c-32.6,12.9-66.1,23.6-99.3,35.1C358.3,379.4,353.9,380.7,348.3,382.8z M326.5,319.8
		c32.8-11.3,63.9-21.8,94.7-32.8c9.5-3.4,18.8-7.7,28-12.3c42.6-21.5,53-66.2,24.5-104.7c-14.7-19.7-33.8-31.5-58.6-24.2
		c-44.5,12.9-88.6,27.4-133.9,41.7C296.7,232.6,311.4,275.7,326.5,319.8z M278.6,406.6c-36.9,12.9-72.3,25.2-107.4,37.9
		c-8.8,3.2-17.3,7.7-25.2,12.7c-23.1,14.3-33.8,34.9-29.4,62.3c7.3,47.8,40.1,70.5,86.4,58c26.5-7,52.4-17,78.6-25.6
		c13.9-4.6,27.6-9.5,42.1-14.5C308.4,493.4,293.7,450.8,278.6,406.6z"/>
	<path fill="none" d="M326.5,319.8c-15.1-44.1-30-87.2-45.5-132.1c45.5-14.3,89.5-28.8,133.9-41.7c24.9-7.3,44.1,4.6,58.6,24.2
		c28.6,38.5,18.1,83.2-24.5,104.7c-9.1,4.6-18.3,8.8-28,12.3C390.5,298.1,359.4,308.5,326.5,319.8z"/>
	<path fill="none" d="M278.6,406.6c15.1,44.1,30,86.8,44.9,130.5c-14.7,5-28.4,9.9-42.1,14.5c-26,8.8-51.9,18.6-78.6,25.6
		c-46.2,12.5-79.1-10.4-86.4-58c-4.3-27.4,6.3-48.1,29.4-62.3c7.9-5,16.5-9.5,25.2-12.7C206.3,431.5,241.6,419.5,278.6,406.6z"/>
</g>
<path fill="#B54141" d="M282.2,404.3c-36.5,11.8-71.6,23.1-106.7,34.4c-24.4,7.9-48.9,15.7-73.4,23.6c-8.8,3-16.1,1.6-19.1-7.9
	c-20.4-65.3-41.5-130.3-60-196c-8.8-31.2-9.1-63,7.3-93.6C64.7,100,192.2,53.1,259,148.7c18.8,27,30.4,57.4,40.1,88.2
	c7.9,25.2,16.3,50.1,24.7,76.3c21.5-7,42.3-13.6,63-20.2c38.7-12.5,77.7-24.9,116.4-37.6c9.7-3.2,16.3-1,19.5,9.1
	c18.6,58,37.1,115.8,55,173.8c4.3,14.3,6.4,29.4,8.6,44.4c7.5,51.7-13.9,90.6-57,116.2c-45.5,27.2-94,35.8-143,7.3
	c-33.8-19.9-53.2-52.1-66.4-87.6c-12.3-32.8-22.2-66.6-33.3-99.9C285.6,414.3,284.2,410,282.2,404.3z M345.8,383.7
	c10.7,33.1,20.6,64.4,31,95.4c3.2,9.7,7.3,19.1,11.5,28.4c20.6,43.1,65.3,54.4,104.3,26.5c19.9-14.3,32.2-33.1,25.4-58.2
	c-12-44.8-25.8-89.1-39.2-134.9C433.5,355.4,390.2,369.4,345.8,383.7z M259.9,334.1c-12.3-37.4-23.8-72.7-35.8-108.1
	c-3-8.8-7.5-17.5-12.3-25.4c-13.9-23.3-34.2-34.2-61.6-30.6c-47.8,6.3-71.1,38.7-59.6,85.2c6.6,26.8,16.1,52.8,24.2,79.1
	c4.3,13.9,9.1,27.6,13.9,42.3C172.5,362.4,215.5,348.6,259.9,334.1z"/>
</svg>
