<?xml version="1.0" encoding="utf-8"?>
<!-- Generator: Adobe Illustrator 18.1.0, SVG Export Plug-In . SVG Version: 6.00 Build 0)  -->
<svg version="1.1" id="Calque_1" xmlns="http://www.w3.org/2000/svg" xmlns:xlink="http://www.w3.org/1999/xlink" x="0px" y="0px"
	 viewBox="-261 445 624 593" enable-background="new -261 445 624 593" xml:space="preserve">
<g id="Captions">
</g>
<g id="Your_Icon">
	<path fill="#EFCB37" d="M287.8,706.9C239.5,447.4,51,459,51,459s-187.9-11.6-236.8,247.9c0,0-17.1,12.9-13.5,39.2
		c0,0,16.5,100.4,31.8,148.1c0,0,11.6,42.2,65.5,40.4l17.7-0.6c0,0,53.9-3.1,48.3-37.9c0,0-21.4-146.3-37.3-178.1
		c-14.1-28.2-39.2-31.2-50.2-26.3c0,0-12.2,4.3-13.5,12.9c0,0-14.1,8.6,0.6-69.2c0,0,25.1-153,186.7-152.4
		C212,482.3,237,635.3,237,635.3c14.7,77.7,0.6,69.2,0.6,69.2c-1.2-9.2-13.5-12.9-13.5-12.9c-11-5.5-36.1-2.4-50.2,26.3
		C158.7,749.7,136.7,896,136.7,896c-5.5,34.9,48.3,37.9,48.3,37.9l-5.5,31.2l-39.2,17.1c-40.4,12.2-31.8,33.7-31.8,33.7
		c7.3,25.7,48.3,0,48.3,0c37.9-18.4,37.9-41.6,37.9-41.6l8-39.8c53.9,2.4,65.5-40.4,65.5-40.4c15.9-47.7,31.8-148.1,31.8-148.1
		C305,719.7,287.8,706.9,287.8,706.9z"/>
</g>
<rect x="-3.9" y="438.4" transform="matrix(-0.4023 -0.9155 0.9155 -0.4023 -608.4727 1087.9553)" fill="#DD2A2A" width="109.5" height="608.3"/>
</svg>
