<?xml version="1.0" encoding="utf-8"?>
<!-- Generator: Adobe Illustrator 18.1.0, SVG Export Plug-In . SVG Version: 6.00 Build 0)  -->
<svg version="1.1" id="Calque_1" xmlns="http://www.w3.org/2000/svg" xmlns:xlink="http://www.w3.org/1999/xlink" x="0px" y="0px"
	 viewBox="0 164 612 588" enable-background="new 0 164 612 588" xml:space="preserve">
<g id="Captions">
</g>
<g id="Your_Icon">
	<path fill="#055770" d="M544.1,422.5C496.7,168,311.8,179.3,311.8,179.3S127.5,168,79.6,422.5c0,0-16.8,12.7-13.2,38.4
		c0,0,16.2,98.5,31.2,145.3c0,0,11.4,41.4,64.2,39.6l17.4-0.6c0,0,52.9-3,47.4-37.2c0,0-21-143.5-36.6-174.7
		c-13.8-27.7-38.4-30.6-49.2-25.8c0,0-12,4.2-13.2,12.7c0,0-13.8,8.4,0.6-67.9c0,0,24.6-150.1,183.1-149.5
		c158.6-0.7,183.1,149.4,183.1,149.4c14.4,76.2,0.6,67.9,0.6,67.9c-1.2-9-13.2-12.7-13.2-12.7c-10.8-5.4-35.4-2.4-49.2,25.8
		c-14.9,31.2-36.5,174.7-36.5,174.7c-5.4,34.2,47.4,37.2,47.4,37.2l-5.4,30.6l-38.4,16.8c-39.6,12-31.2,33.1-31.2,33.1
		c7.2,25.2,47.4,0,47.4,0c37.2-18,37.2-40.8,37.2-40.8l7.8-39c52.9,2.4,64.2-39.6,64.2-39.6c15.6-46.8,31.2-145.3,31.2-145.3
		C560.9,435,544.1,422.5,544.1,422.5z"/>
</g>
<rect x="258" y="159.3" transform="matrix(0.4023 0.9155 -0.9155 0.4023 605.2003 -11.8777)" fill="#DD2A2A" width="107.4" height="596.6"/>
</svg>
