<?xml version="1.0" encoding="utf-8"?>
<!-- Generator: Adobe Illustrator 18.1.0, SVG Export Plug-In . SVG Version: 6.00 Build 0)  -->
<svg version="1.1" id="logo_x5F_devpanel_xA0_Image_1_"
	 xmlns="http://www.w3.org/2000/svg" xmlns:xlink="http://www.w3.org/1999/xlink" x="0px" y="0px" viewBox="18.4 -16 55.6 72"
	 enable-background="new 18.4 -16 55.6 72" xml:space="preserve">
<g>
	<g>
		<g>
			<path fill="#1B96BC" d="M54.7,11.9c-0.6-0.3-1.3-0.6-2-0.8C50,10.4,47.3,9.7,44.5,9c-0.5-0.1-0.7,0.1-0.8,0.5
				c-0.5,1.8-0.9,3.7-1.4,5.5c-0.2,0.8-0.4,1.5-0.6,2.3c-0.1,0.4-0.5,0.6-0.8,0.5c-1-0.3-2-0.5-2.9-0.7c-1.5-0.4-2.9-0.7-4.5-0.6
				c-5.4,0.3-6.7,6.4-5,9.4c0.8,1.4,2.1,2.2,3.5,2.6c3,0.9,6.1,1.6,9.2,2.5c0.4,0.1,0.7-0.1,0.8-0.6c0.3-1.2,0.6-2.3,0.9-3.5
				c0.4-1.4,0.7-2.9,1.1-4.4c0.1-0.4,0.5-0.6,0.8-0.5c1.6,0.4,3.2,0.8,4.7,1.1c1.7,0.4,3.5,0.4,5.1-0.5c2.3-1.2,3.2-3.3,3.2-5.8
				C57.9,14.6,56.9,12.9,54.7,11.9z M40.6,21.7c-0.4,1.6-0.8,3.2-1.2,4.9c-0.1,0.4-0.5,0.6-0.8,0.5c-0.5-0.1-0.9-0.2-1.3-0.3
				c-1.2-0.3-2.5-0.6-3.7-1c-2.1-0.7-2.8-2.4-1.9-4.4c0.5-1.2,1.5-1.7,2.7-1.7c0.4,0,0.9,0,1.3,0.1c1.5,0.3,2.9,0.7,4.5,1.1
				C40.5,21,40.7,21.4,40.6,21.7z M50.8,20.3c-0.5-0.1-0.9-0.1-1.4-0.2c-1.3-0.3-2.5-0.6-3.8-1c-0.4-0.1-0.6-0.5-0.5-0.8
				c0.4-1.6,0.8-3.3,1.2-4.9c0.1-0.4,0.5-0.6,0.9-0.5c1.9,0.5,3.7,1,5.6,1.6c1.1,0.4,1.6,1.3,1.7,2.4C54.5,19,53,20.5,50.8,20.3z"/>
		</g>
	</g>
</g>
<text transform="matrix(0.8492 0 0 1 19.8059 47.127)" fill="#1C7DA3" font-family="'Novecento-WideMedium'" font-size="11.2766">DEVPANEL</text>
</svg>
