<?xml version="1.0" encoding="utf-8"?>
<!-- Generator: Adobe Illustrator 18.1.0, SVG Export Plug-In . SVG Version: 6.00 Build 0)  -->
<svg version="1.1" id="Calque_1" xmlns="http://www.w3.org/2000/svg" xmlns:xlink="http://www.w3.org/1999/xlink" x="0px" y="0px"
	 viewBox="0 229 612 563" enable-background="new 0 229 612 563" xml:space="preserve">
<g>
	<path d="M534.3,547.1c0,4.9-1.9,10.7-6.9,18.6c-4.9,7.9-10.7,16.7-19.6,27.5c-7.9,9.8-17.7,20.7-28.4,32.5
		c-10.7,11.7-21.7,23.7-33.5,35.4c-13.8,13.8-27.5,26.5-43.2,38.4c-14.8,12.8-31.5,24.6-48.2,36.3c-33.5,23.7-64,35.4-90.5,35.4
		c-29.6,0-52.1-8.8-67.9-27.5c-15.8-18.6-27.5-40.3-33.5-66.8c-6-25.6-8.8-52.1-8.8-79.7c0-11.7,1-29.6,3.9-53
		c1-11.7,2.9-22.6,3.9-31.5c1-8.8,2.9-15.8,4.9-21.7c2.9-10.7,10.7-19.6,21.7-27.5c10.7-7.9,22.6-12.8,34.4-12.8
		c6.9,0,9.8,6,9.8,16.7c0,7.9-1,16.7-1.9,25.6c-1.9,9.8-2.9,18.6-4.9,28.4c-2.9,17.7-6,33.5-6.9,47.2c-1,13.8-1.9,26.5-1.9,36.3
		c0,22.6,2.9,45.3,9.8,68.8c6.9,23.7,18.6,35.4,36.3,35.4s38.4-6,62.1-17.7c11.7-6,23.7-12.8,35.4-20.7
		c11.7-7.9,23.7-15.8,35.4-25.6c11.7-9.8,23.7-18.6,34.4-28.4c10.7-9.8,21.7-19.6,32.5-29.6s19.6-19.6,28.4-28.4
		c8.8-8.8,15.8-16.7,21.7-24.6c0,0,1-1,1-1.9c1-1,1-1.9,1.9-2.9s1-1.9,1.9-2.9c1-1,1-1,1.9-1c2.9,0,6,2.9,7.9,7.9
		C533.3,540.4,534.3,544.3,534.3,547.1z M297.2,273.8c0,14.8-3.9,26.5-12.8,37.4c-7.9,9.8-19.6,15.8-35.4,15.8
		c-9.8,0-20.7-1-32.5-3.9c-11.8-2.9-17.7-6.9-17.7-12.8c0-10.7,3.9-21.7,10.7-31.5c6.9-9.8,16.7-17.7,26.5-24.6
		c7.9-4.9,13.8-6.9,16.7-6.9c13.8,0,24.6,1.9,31.5,4.9C293.4,255.2,297.2,263,297.2,273.8z"/>
</g>
</svg>
