<?xml version="1.0" encoding="utf-8"?>
<!-- Generator: Adobe Illustrator 18.1.0, SVG Export Plug-In . SVG Version: 6.00 Build 0)  -->
<svg version="1.1" id="Layer_1" xmlns="http://www.w3.org/2000/svg" xmlns:xlink="http://www.w3.org/1999/xlink" x="0px" y="0px"
	 viewBox="0 0 612 792" enable-background="new 0 0 612 792" xml:space="preserve">
<path fill="#055770" d="M300,542.8c69.3,0,126.1-56.1,126.1-126.1v-273c0-69.3-56.1-126.1-126.1-126.1
	c-69.3,0-126.1,56.1-126.1,126.1v273C173.9,486.8,230.8,542.8,300,542.8"/>
<path fill="#055770" d="M468.2,291.4v126.1l0,0c0,91.5-73.4,165.8-164.1,168.2h-7.4C206,583.3,132.5,509,132.5,417.5l0,0V291.4h-42
	v126.1l0,0c0,108.9,83.3,198,188.8,208.6v106.3H153.1v42h293.7v-42H320.7V626.1c105.5-10.8,188.8-99.9,188.8-208.6l0,0V291.4H468.2z
	"/>
<rect x="246.6" y="49.9" transform="matrix(-0.4023 -0.9155 0.9155 -0.4023 103.8644 759.8473)" fill="#DD2A2A" width="106.8" height="592.2"/>
<rect x="246.6" y="49.9" transform="matrix(-0.4023 -0.9155 0.9155 -0.4023 103.8644 759.8473)" fill="#DD2A2A" width="106.8" height="592.2"/>
</svg>
