<?xml version="1.0" encoding="utf-8"?>
<!-- Generator: Adobe Illustrator 18.1.0, SVG Export Plug-In . SVG Version: 6.00 Build 0)  -->
<svg version="1.1" id="Layer_1" xmlns="http://www.w3.org/2000/svg" xmlns:xlink="http://www.w3.org/1999/xlink" x="0px" y="0px"
	 viewBox="-239 446 579 599" enable-background="new -239 446 579 599" xml:space="preserve">
<path fill="#EFCB37" d="M51,851.9c51.4,0,93.6-41.6,93.6-93.6V555.7c0-51.4-41.6-93.6-93.6-93.6c-51.4,0-93.6,41.6-93.6,93.6v202.6
	C-42.6,810.3-0.4,851.9,51,851.9"/>
<path fill="#EFCB37" d="M175.8,665.3v93.6l0,0c0,67.9-54.5,123-121.8,124.8h-5.5c-67.3-1.8-121.8-56.9-121.8-124.8l0,0v-93.6h-31.2
	v93.6l0,0c0,80.8,61.8,146.9,140.1,154.8v78.9h-93.6v31.2h217.9v-31.2H66.3v-78.9c78.3-8,140.1-74.1,140.1-154.8l0,0v-93.6H175.8z"
	/>
<rect x="1.5" y="438.1" transform="matrix(0.4023 0.9155 -0.9155 0.4023 683.1655 379.328)" fill="#DD2A2A" width="99.1" height="549.6"/>
</svg>
