<?xml version="1.0" encoding="utf-8"?>
<!-- Generator: Adobe Illustrator 18.1.0, SVG Export Plug-In . SVG Version: 6.00 Build 0)  -->
<svg version="1.1" id="Calque_1" xmlns="http://www.w3.org/2000/svg" xmlns:xlink="http://www.w3.org/1999/xlink" x="0px" y="0px"
	 viewBox="0 129 612 594" enable-background="new 0 129 612 594" xml:space="preserve">
<g id="Captions">
</g>
<g id="Your_Icon">
	<path d="M548.6,386.6c-47.2-253.7-231.5-242.4-231.5-242.4S133.4,132.9,85.6,386.6c0,0-16.7,12.6-13.2,38.3
		c0,0,16.1,98.2,31.1,144.8c0,0,11.3,41.3,64,39.5l17.3-0.6c0,0,52.7-3,47.2-37.1c0,0-20.9-143-36.5-174.1
		c-13.8-27.6-38.3-30.5-49.1-25.7c0,0-11.9,4.2-13.2,12.6c0,0-13.8,8.4,0.6-67.7c0,0,24.5-149.6,182.5-149
		C474.5,167,499,316.6,499,316.6c14.4,76,0.6,67.7,0.6,67.7c-1.2-9-13.2-12.6-13.2-12.6c-10.8-5.4-35.3-2.3-49.1,25.7
		c-14.9,31.1-36.4,174.1-36.4,174.1c-5.4,34.1,47.2,37.1,47.2,37.1l-5.4,30.5l-38.3,16.7c-39.5,11.9-31.1,32.9-31.1,32.9
		c7.1,25.1,47.2,0,47.2,0c37.1-18,37.1-40.7,37.1-40.7l7.8-38.9c52.7,2.3,64-39.5,64-39.5c15.5-46.6,31.1-144.8,31.1-144.8
		C565.4,399.1,548.6,386.6,548.6,386.6z"/>
</g>
</svg>
