<?xml version="1.0" encoding="utf-8"?>
<!-- Generator: Adobe Illustrator 18.1.0, SVG Export Plug-In . SVG Version: 6.00 Build 0)  -->
<svg version="1.1" id="Calque_1" xmlns="http://www.w3.org/2000/svg" xmlns:xlink="http://www.w3.org/1999/xlink" x="0px" y="0px"
	 viewBox="-255 347 100 100" enable-background="new -255 347 100 100" xml:space="preserve">
<g id="Your_Icon">
	<g>
		<path d="M-205,348c-3.9,0-7.7,0.5-11.3,1.4l1.7,1.1l6.8,1l3.1-0.7l5.9,0.7l1.2,1.6l-4.1-0.5l-4.2,1.7l1.2,3.1l4.3,2l0.6-4l4.1-0.3
			l5.8,5.6l1.7,2.2l0.8,1.4l-4.5,1.8l-6.8,3.1l-0.6,3l-4.5,4.3l0.2,4.1l-1.4,0l-0.5-3.5l-2.6-0.8l-7.5,0.4l-3,5.5l2.6,3.1l4.3-2.4
			l0.3,3.8l1.7,1.3l3,3.4l-0.1,4.3l5.5,1.3l4-2.9l1.8,0.6l6.7,2.7l9.4,3.5l2,4.7l6.7,3.3l1.5,5.8l-4.6,5.1l-5.4,5.7l-5.7,3l-5.9,3.9
			l-7.9,5.1l-4.4,4.4l-1.5-1.7l3.5-8.8l0.9-10.3l-7.5-6.8l0-5.7l2-2.4l2.3-6.8l-4.7-2.6l-3.1-5.1l-4.9-1.9l-7.7-4.1l-3.1-8.6
			l-1.6,4.3l-2.4-7.1l0.8-10.6l3.9-3.5l-1.2-2.4l2.7-4.3l-5.4,1.5c-14.3,8.6-23.9,24.1-23.9,42c0,27.1,21.9,49,49,49
			c27.1,0,49-21.9,49-49C-156,369.9-177.9,348-205,348z"/>
	</g>
</g>
</svg>
