<?xml version="1.0" encoding="utf-8"?>
<!-- Generator: Adobe Illustrator 18.1.0, SVG Export Plug-In . SVG Version: 6.00 Build 0)  -->
<svg version="1.1" id="Layer_1" xmlns="http://www.w3.org/2000/svg" xmlns:xlink="http://www.w3.org/1999/xlink" x="0px" y="0px"
	 viewBox="0 0 612 792" enable-background="new 0 0 612 792" xml:space="preserve">
<path d="M300.9,549.7c67.9,0,123.7-55,123.7-123.7V158.3c0-67.9-55-123.7-123.7-123.7c-67.9,0-123.7,55-123.7,123.7V426
	C177.2,494.7,232.9,549.7,300.9,549.7"/>
<path d="M465.8,303.1v123.7l0,0c0,89.7-72,162.6-161,164.9h-7.3c-88.9-2.4-161-75.2-161-164.9l0,0V303.1H95.3v123.7l0,0
	c0,106.8,81.7,194.2,185.2,204.6v104.3H156.8v41.2h288v-41.2H321.1V631.4c103.5-10.6,185.2-97.9,185.2-204.6l0,0V303.1H465.8z"/>
<rect x="253.2" y="71.5" transform="matrix(-0.4023 -0.9155 0.9155 -0.4023 95.7416 790.4618)" fill="#DD2A2A" width="105.5" height="585"/>
</svg>
