<?xml version="1.0" encoding="utf-8"?>
<!-- Generator: Adobe Illustrator 18.1.0, SVG Export Plug-In . SVG Version: 6.00 Build 0)  -->
<svg version="1.1" id="Layer_1" xmlns="http://www.w3.org/2000/svg" xmlns:xlink="http://www.w3.org/1999/xlink" x="0px" y="0px"
	 viewBox="0 0 612 792" enable-background="new 0 0 612 792" xml:space="preserve">
<path d="M298.1,538.9c67.4,0,122.7-54.5,122.7-122.7V150.5c0-67.4-54.5-122.7-122.7-122.7c-67.4,0-122.7,54.5-122.7,122.7v265.7
	C175.3,484.3,230.7,538.9,298.1,538.9"/>
<path d="M461.7,294.2v122.7l0,0c0,89-71.5,161.3-159.7,163.6h-7.2c-88.2-2.4-159.7-74.6-159.7-163.6l0,0V294.2H94.2v122.7l0,0
	c0,105.9,81,192.6,183.7,203v103.5H155.1v40.9h285.7v-40.9H318.1V619.9c102.7-10.5,183.7-97.2,183.7-203l0,0V294.2H461.7z"/>
</svg>
