<?xml version="1.0" encoding="utf-8"?>
<!-- Generator: Adobe Illustrator 18.1.0, SVG Export Plug-In . SVG Version: 6.00 Build 0)  -->
<svg version="1.1" id="Layer_1" xmlns="http://www.w3.org/2000/svg" xmlns:xlink="http://www.w3.org/1999/xlink" x="0px" y="0px"
	 viewBox="24 305.5 488.1 472.6" enable-background="new 24 305.5 488.1 472.6" xml:space="preserve">
<g opacity="0.62">
	<line fill="none" x1="275" y1="541.9" x2="420.8" y2="641.7"/>
	<circle fill="none" cx="275" cy="541.9" r="147.2"/>
	<circle fill="none" cx="275" cy="541.9" r="176.6"/>
	<polyline fill="none" points="275,541.9 124,1131.7 275,541.9 426,-48.1 275,541.9 -314.8,390.9 275,541.9 864.8,692.8 275,541.9 
		-186.9,1268.5 275,541.9 736.9,-184.7 275,541.9 -451.6,79.8 275,541.9 1001.6,1003.8 275,541.9 195.6,684 275,541.9 354.4,399.8 
		275,541.9 132.9,462.3 275,541.9 417.1,621.3 275,541.9 548.7,876.9 275,541.9 1.3,206.9 275,541.9 -60,815.5 275,541.9 610,268.2 
		275,541.9 197.5,791.1 275,541.9 352.5,292.7 275,541.9 25.8,464.3 275,541.9 524.2,619.4 275,541.9 360.7,1203.2 275,541.9 
		189.3,-119.6 275,541.9 -386.3,627.6 275,541.9 936.3,456.2 275,541.9 481.1,1053 275,541.9 68.9,30.6 275,541.9 -236.3,748 
		275,541.9 786.3,335.7 275,541.9 222.5,1164.9 275,541.9 327.5,-81.2 275,541.9 -348,489.4 275,541.9 898,594.3 275,541.9 
		228.9,697.2 275,541.9 321.1,386.6 275,541.9 119.7,495.8 275,541.9 430.3,587.9 275,541.9 771.8,933.6 275,541.9 -221.8,150.2 
		275,541.9 -116.7,1038.6 275,541.9 666.7,45.1 275,541.9 417.1,1297.7 275,541.9 132.9,-214 275,541.9 -480.9,684 275,541.9 
		1030.9,399.8 275,541.9 602.7,1340.3 275,541.9 -52.7,-256.6 275,541.9 -523.4,869.6 275,541.9 1073.4,214.2 275,541.9 
		472.9,922.4 275,541.9 77.1,161.4 275,541.9 -105.5,739.8 275,541.9 655.5,344 275,541.9 225.4,746.3 275,541.9 324.6,337.5 
		275,541.9 70.6,492.3 275,541.9 479.4,591.5 275,541.9 774.8,1111.2 275,541.9 -224.8,-27.5 275,541.9 -294.3,1041.7 275,541.9 
		844.3,42 	"/>
	
		<radialGradient id="SVGID_1_" cx="214.6078" cy="395.9" r="144.3" gradientTransform="matrix(1.224 0 0 -1.224 12.32 1026.48)" gradientUnits="userSpaceOnUse">
		<stop  offset="0.15" style="stop-color:#FFFFFF"/>
		<stop  offset="0.2114" style="stop-color:#E2D1D2"/>
		<stop  offset="0.2918" style="stop-color:#BF9A9C"/>
		<stop  offset="0.3613" style="stop-color:#A67276"/>
		<stop  offset="0.4163" style="stop-color:#975A5E"/>
		<stop  offset="0.45" style="stop-color:#915155"/>
		<stop  offset="0.5553" style="stop-color:#6C3638"/>
		<stop  offset="0.6842" style="stop-color:#44191A"/>
		<stop  offset="0.787" style="stop-color:#2C0707"/>
		<stop  offset="0.85" style="stop-color:#230000"/>
		<stop  offset="0.8572" style="stop-color:#270201"/>
		<stop  offset="0.8647" style="stop-color:#340805"/>
		<stop  offset="0.8723" style="stop-color:#48120B"/>
		<stop  offset="0.88" style="stop-color:#652114"/>
		<stop  offset="0.8878" style="stop-color:#8B331F"/>
		<stop  offset="0.8955" style="stop-color:#B8492D"/>
		<stop  offset="0.9" style="stop-color:#D65836"/>
		<stop  offset="0.903" style="stop-color:#C95232"/>
		<stop  offset="0.9146" style="stop-color:#9D3C25"/>
		<stop  offset="0.9267" style="stop-color:#782A1A"/>
		<stop  offset="0.9392" style="stop-color:#591B10"/>
		<stop  offset="0.9523" style="stop-color:#410F09"/>
		<stop  offset="0.9661" style="stop-color:#300604"/>
		<stop  offset="0.9812" style="stop-color:#260201"/>
		<stop  offset="1" style="stop-color:#230000"/>
	</radialGradient>
	<circle opacity="0.5" fill="url(#SVGID_1_)" enable-background="new    " cx="275" cy="541.9" r="176.6"/>
	
		<radialGradient id="SVGID_2_" cx="214.6078" cy="395.9" r="120.3" gradientTransform="matrix(1.224 0 0 -1.224 12.32 1026.48)" gradientUnits="userSpaceOnUse">
		<stop  offset="0.15" style="stop-color:#FFFFFF"/>
		<stop  offset="0.2824" style="stop-color:#C2C2C2"/>
		<stop  offset="0.4253" style="stop-color:#888888"/>
		<stop  offset="0.5636" style="stop-color:#575757"/>
		<stop  offset="0.6936" style="stop-color:#313131"/>
		<stop  offset="0.8134" style="stop-color:#161616"/>
		<stop  offset="0.9192" style="stop-color:#060606"/>
		<stop  offset="1" style="stop-color:#000000"/>
	</radialGradient>
	<circle fill="url(#SVGID_2_)" cx="275" cy="541.9" r="147.2"/>
	
		<polyline opacity="3.000000e-002" fill="none" stroke="#FFFFFF" stroke-width="2" stroke-miterlimit="10" enable-background="new    " points="
		275,541.9 124,1131.7 275,541.9 426,-48.1 275,541.9 -314.8,390.9 275,541.9 864.8,692.8 275,541.9 -186.9,1268.5 275,541.9 
		736.9,-184.7 275,541.9 -451.6,79.8 275,541.9 1001.6,1003.8 275,541.9 195.6,684 275,541.9 354.4,399.8 275,541.9 132.9,462.3 
		275,541.9 417.1,621.3 275,541.9 548.7,876.9 275,541.9 1.3,206.9 275,541.9 -60,815.5 275,541.9 610,268.2 275,541.9 197.5,791.1 
		275,541.9 352.5,292.7 275,541.9 25.8,464.3 275,541.9 524.2,619.4 275,541.9 360.7,1203.2 275,541.9 189.3,-119.6 275,541.9 
		-386.3,627.6 275,541.9 936.3,456.2 275,541.9 481.1,1053 275,541.9 68.9,30.6 275,541.9 -236.3,748 275,541.9 786.3,335.7 
		275,541.9 222.5,1164.9 275,541.9 327.5,-81.2 275,541.9 -348,489.4 275,541.9 898,594.3 275,541.9 228.9,697.2 275,541.9 
		321.1,386.6 275,541.9 119.7,495.8 275,541.9 430.3,587.9 275,541.9 771.8,933.6 275,541.9 -221.8,150.2 275,541.9 -116.7,1038.6 
		275,541.9 666.7,45.1 275,541.9 417.1,1297.7 275,541.9 132.9,-214 275,541.9 -480.9,684 275,541.9 1030.9,399.8 275,541.9 
		602.7,1340.3 275,541.9 -52.7,-256.6 275,541.9 -523.4,869.6 275,541.9 1073.4,214.2 275,541.9 472.9,922.4 275,541.9 77.1,161.4 
		275,541.9 -105.5,739.8 275,541.9 655.5,344 275,541.9 225.4,746.3 275,541.9 324.6,337.5 275,541.9 70.6,492.3 275,541.9 
		479.4,591.5 275,541.9 774.8,1111.2 275,541.9 -224.8,-27.5 275,541.9 -294.3,1041.7 275,541.9 844.3,42 	"/>
</g>
<g opacity="0.75" enable-background="new    ">
	<g>
		<path fill="#FF0000" d="M168.1,702.5c-88.9-59.1-112.9-179.1-53.6-267.8c58.3-87.3,180.1-111.6,267.3-53.6
			c88.9,59.1,112.9,179.1,53.6,267.8C377.3,736.3,255.5,760.6,168.1,702.5z"/>
	</g>
	<line fill="none" stroke="#000000" stroke-width="0.3" x1="82" y1="283.5" x2="82" y2="327.6"/>
	<line fill="none" stroke="#000000" stroke-width="0.3" x1="15.9" y1="349.6" x2="59.9" y2="349.6"/>
	<line fill="none" stroke="#000000" stroke-width="0.3" x1="15.9" y1="734.1" x2="59.9" y2="734.1"/>
	<line fill="none" stroke="#000000" stroke-width="0.3" x1="82" y1="800.2" x2="82" y2="756.1"/>
	<line fill="none" stroke="#000000" stroke-width="0.3" x1="468" y1="283.5" x2="468" y2="327.6"/>
	<line fill="none" stroke="#000000" stroke-width="0.3" x1="534.1" y1="349.6" x2="490.1" y2="349.6"/>
	<line fill="none" stroke="#000000" stroke-width="0.3" x1="534.1" y1="734.1" x2="490.1" y2="734.1"/>
	<line fill="none" stroke="#000000" stroke-width="0.3" x1="468" y1="800.2" x2="468" y2="756.1"/>
</g>
</svg>
